PathFileType	4	(X/Y/Z)	C:/Users/opensim2020/Desktop/walking_exp_matlab/subject03_walking11_straight_03.trc																																																																																																																																								
DataRate	CameraRate	NumFrames	NumMarkers	Units	OrigDataRate	OrigDataStartFrame	OrigNumFrames																																																																																																																																				
100	100	6	46	mm	100	2977	380																																																																																																																																				
Frame#	Time	LFHD			RFHD			LBHD			RBHD			C7			T10			CLAV			STRN			RBAK			LSHO			LUPA			LELB			LFRM			LWRA			LWRB			LFIN			RSHO			RUPA			RELB			RFRM			RWRA			RWRB			RFIN			LASI			RASI			LPSI			RPSI			LTHI			LKNE			LTIB			LANK			LHEE			LTOE			RTHI			RKNE			RTIB			RANK			RHEE			RTOE			*39			*40			*41			*42			*43			*44			*45		
		X1	Y1	Z1	X2	Y2	Z2	X3	Y3	Z3	X4	Y4	Z4	X5	Y5	Z5	X6	Y6	Z6	X7	Y7	Z7	X8	Y8	Z8	X9	Y9	Z9	X10	Y10	Z10	X11	Y11	Z11	X12	Y12	Z12	X13	Y13	Z13	X14	Y14	Z14	X15	Y15	Z15	X16	Y16	Z16	X17	Y17	Z17	X18	Y18	Z18	X19	Y19	Z19	X20	Y20	Z20	X21	Y21	Z21	X22	Y22	Z22	X23	Y23	Z23	X24	Y24	Z24	X25	Y25	Z25	X26	Y26	Z26	X27	Y27	Z27	X28	Y28	Z28	X29	Y29	Z29	X30	Y30	Z30	X31	Y31	Z31	X32	Y32	Z32	X33	Y33	Z33	X34	Y34	Z34	X35	Y35	Z35	X36	Y36	Z36	X37	Y37	Z37	X38	Y38	Z38	X39	Y39	Z39	X40	Y40	Z40	X41	Y41	Z41	X42	Y42	Z42	X43	Y43	Z43	X44	Y44	Z44	X45	Y45	Z45	X46	Y46	Z46
																																																																																																																																											
238	2.37	577.83557	1625.66956	1369.4082	571.56091	1626.99365	1501.45142	459.87671	1560.24402	1369.45251	458.95316	1562.39001	1500.3252	442.47079	1415.07617	1429.87891	404.54376	1102.83838	1437.44373	565.11469	1337.9082	1425.15735	603.96124	1171.74146	1424.53223	391.71323	1246.59631	1535.41821	512.86371	1371.85632	1270.45544	480.46286	1172.13159	1210.46851	474.52936	1047.80054	1205.77417	489.2767	918.21515	1212.98425	497.56528	800.6167	1250.16675	474.66263	805.64032	1198.28601	481.54919	721.58569	1213.98389	530.45947	1365.51941	1586.26172	556.34711	1147.83972	1663.20667	591.07312	1040.76672	1676.41833	640.51044	913.19135	1672.17065	690.10559	830.59686	1628.81738	665.50116	816.00598	1674.8241	707.05945	755.83466	1660.10791	578.35632	941.65436	1324.20862	569.19873	933.18353	1561.10486	413.88171	962.13257	1365.41223	409.01224	967.41571	1515.56775	572.94293	642.9024	1279.70361	618.63232	471.63455	1324.55981	605.24109	277.75372	1319.55481	628.2605	69.65014	1357.92981	589.84949	34.93682	1394.44897	781.08234	37.82093	1380.87158	472.5481	642.08746	1600.15649	453.69156	462.73517	1573.41931	325.88919	313.16122	1578.11755	202.35521	132.64651	1533.87878	149.58063	126.12968	1483.2843	309.67432	34.51869	1506.49365	483.78555	1669.30383	1421.15283	NaN	NaN	NaN	NaN	NaN	NaN	NaN	NaN	NaN	NaN	NaN	NaN	NaN	NaN	NaN	NaN	NaN	NaN
239	2.38	585.99994	1626.82251	1368.047	580.09509	1628.78833	1500.43115	467.85239	1561.68274	1368.08813	466.82172	1564.13269	1498.94214	450.35739	1416.07532	1428.52258	413.20209	1103.85901	1435.99707	573.21124	1339.46704	1424.09692	612.7818	1173.55725	1423.62756	400.10596	1247.65881	1534.26563	521.36096	1373.43982	1269.43445	490.90585	1173.49768	1209.20801	485.91965	1049.29517	1204.71826	501.34229	919.74841	1211.66541	509.87735	801.99652	1248.53931	487.2663	807.22803	1196.45435	494.11148	722.98981	1212.29822	538.14655	1367.08325	1585.12134	563.78711	1149.13086	1661.58508	597.30084	1041.70093	1674.59009	645.58063	913.68237	1670.67004	694.49316	830.45032	1627.5249	669.69263	816.26202	1673.58728	710.50891	755.32294	1658.75525	587.52972	943.15436	1322.76892	578.13336	934.56482	1559.53931	423.20352	963.73279	1363.96179	418.09476	968.69348	1514.09338	578.96643	643.49561	1278.70361	623.23285	472.02463	1323.44641	607.87219	277.90594	1319.26794	628.57605	69.7822	1358.28174	589.96826	35.04509	1394.58484	781.50983	37.55445	1380.93115	483.44186	642.53314	1599.94507	467.22144	462.79785	1574.68457	336.25876	315.80414	1579.13989	208.70593	138.40984	1535.021	156.20781	134.22598	1483.94348	310.65302	34.64093	1506.573	490.84775	1669.02673	1414.23926	NaN	NaN	NaN	NaN	NaN	NaN	NaN	NaN	NaN	NaN	NaN	NaN	NaN	NaN	NaN	NaN	NaN	NaN
240	2.39	594.08234	1627.73853	1366.66492	588.13202	1630.06226	1499.04333	475.74704	1562.97644	1366.80664	474.65811	1565.73413	1497.59387	458.11325	1416.9198	1427.24268	421.98898	1104.7146	1434.30188	581.32153	1340.94324	1423.18555	621.51361	1175.22327	1422.67566	408.45547	1248.5575	1533.08752	529.74408	1374.92981	1268.48267	501.36209	1174.87793	1207.97961	497.47302	1050.59216	1203.48486	513.59174	921.29828	1210.38367	522.56091	803.50494	1246.98792	500.28748	808.71313	1194.66626	507.10144	724.34387	1210.505	545.72906	1368.6814	1583.91089	570.71924	1150.19849	1659.86243	603.46991	1042.57239	1672.88745	650.58685	914.09308	1669.2998	698.88831	830.23004	1626.36523	673.85071	816.3606	1672.48572	713.86804	754.69928	1657.71362	596.44446	944.32611	1321.25415	586.90955	935.84161	1557.91382	431.97598	965.32513	1362.51599	426.97235	969.92908	1512.49927	584.54797	643.77747	1278.04761	627.62415	471.84024	1322.46655	610.36676	277.99207	1319.125	628.83441	69.7859	1358.67297	590.09869	35.12307	1394.81482	781.88721	37.29369	1381.12012	494.61929	642.86609	1599.91467	481.48251	462.69055	1576.15784	347.68048	318.26318	1580.16211	215.82326	144.26544	1536.12903	163.95151	142.49699	1484.64771	311.8349	34.8651	1506.48291	499.1033	1670.36194	1412.75305	NaN	NaN	NaN	NaN	NaN	NaN	NaN	NaN	NaN	NaN	NaN	NaN	NaN	NaN	NaN	NaN	NaN	NaN
241	2.4	602.08905	1628.46289	1365.3186	596.11584	1631.13647	1497.70239	483.51563	1564.09778	1365.53162	482.41199	1567.14233	1496.27844	465.7652	1417.58582	1426.04578	430.52328	1105.26233	1432.51379	589.37012	1342.22656	1422.30103	630.12396	1176.6947	1421.78442	416.64386	1249.19617	1531.77832	538.16675	1376.27405	1267.54114	511.84064	1176.09692	1206.72339	508.73465	1051.79382	1202.33582	526.01337	922.66913	1208.94434	535.45288	804.76129	1245.40979	513.66028	809.9549	1192.9165	520.40179	725.52704	1208.6853	553.18121	1369.94836	1582.8053	577.90515	1151.25476	1658.5105	609.56885	1043.25916	1671.24036	655.52759	914.36627	1668.06604	703.24713	829.84729	1625.41699	677.92651	816.43921	1671.58215	716.84229	753.69177	1656.5155	605.24384	945.23822	1319.74365	595.52289	937.01929	1556.24561	441.24509	966.33856	1360.83911	435.60474	970.92505	1510.74451	589.8316	643.84668	1277.69482	631.92499	471.86871	1321.61365	612.7616	278.02591	1318.91626	629.08282	69.83292	1359.03467	590.15155	35.16266	1395.02319	782.14532	37.07032	1381.32935	506.08261	642.97363	1599.83569	496.30856	462.38617	1577.63599	360.04599	320.61185	1581.35095	224.10103	149.98981	1537.52856	172.82516	150.85887	1485.62	313.28046	35.30317	1506.26685	NaN	NaN	NaN	NaN	NaN	NaN	NaN	NaN	NaN	NaN	NaN	NaN	NaN	NaN	NaN	NaN	NaN	NaN	NaN	NaN	NaN
242	2.41	610.11017	1628.98767	1364.08337	603.99072	1631.96692	1496.37927	491.27203	1564.97949	1364.3678	490.05484	1568.36353	1495.06091	473.3371	1418.02185	1424.76257	439.0723	1105.76501	1430.60303	597.27032	1343.20569	1421.45288	638.57111	1177.91479	1420.89294	424.68884	1249.46667	1530.37549	546.51654	1377.4115	1266.66125	522.27374	1177.18958	1205.40405	520.59351	1052.95752	1200.93274	538.6123	923.85681	1207.46545	548.59076	805.86383	1243.79529	526.93469	811.02271	1191.40918	534.13568	726.50885	1206.80164	560.43988	1370.93335	1581.78528	584.76306	1151.97375	1657.08105	615.58203	1043.73511	1669.69812	660.46729	914.42554	1666.96436	707.57159	829.26093	1624.66956	681.96667	816.2442	1670.73792	720.22852	753.00348	1655.74048	613.7962	945.72437	1318.16418	603.89825	938.0282	1554.58228	449.97186	967.23022	1359.16736	443.90717	971.65808	1508.99622	595.34259	644.00787	1277.20935	636.42627	471.61322	1320.49158	615.26013	278.04517	1318.60278	629.31158	69.77016	1359.25916	590.22308	35.17593	1395.10059	782.14954	36.68175	1381.4115	517.85449	642.80017	1599.62695	511.51904	461.88577	1578.97632	373.17648	322.63733	1582.59253	233.47621	155.40755	1538.99805	182.80414	159.01393	1486.83936	314.9595	35.75264	1506.17712	515.40796	1672.44397	1409.8772	NaN	NaN	NaN	NaN	NaN	NaN	NaN	NaN	NaN	NaN	NaN	NaN	NaN	NaN	NaN	NaN	NaN	NaN
243	2.42	618.00079	1629.34521	1362.86145	611.83905	1632.63879	1495.17969	498.98206	1565.64014	1363.21533	497.64911	1569.3457	1493.87659	480.95068	1418.36902	1423.58569	447.44089	1105.99695	1428.71997	605.0459	1344.0083	1420.64929	646.84027	1178.86157	1419.99475	432.53238	1249.58447	1528.90381	554.84308	1378.24512	1265.75903	532.75079	1178.02502	1204.04736	532.10901	1053.77258	1199.59302	551.28882	924.85217	1205.96814	562.12811	806.95648	1242.10107	540.6283	811.93829	1189.66382	548.26416	727.40222	1204.96094	567.66907	1371.62952	1580.75989	591.46887	1152.42993	1655.72058	621.65247	1043.98401	1668.30469	665.37946	914.25281	1666.00806	712.18628	828.77234	1624.25684	685.99158	815.83215	1670.07849	723.34692	751.85315	1655.04529	622.10156	945.93176	1316.61865	612.1748	938.80725	1553.10034	458.3938	967.88495	1357.57166	451.98099	972.0658	1507.30859	601.22998	644.45483	1276.34131	640.60938	471.47281	1319.65698	617.81335	278.04129	1318.01611	629.45715	69.77306	1359.31921	590.27643	35.13693	1395.15771	782.4035	36.61914	1381.73523	529.72888	642.37903	1599.46973	527.01385	461.26566	1580.05762	387.27011	324.25952	1583.53308	244.02811	160.40439	1540.5144	193.67838	166.82629	1488.34839	317.10849	36.2669	1506.54541	523.06567	1672.37134	1406.21814	NaN	NaN	NaN	NaN	NaN	NaN	NaN	NaN	NaN	NaN	NaN	NaN	NaN	NaN	NaN	NaN	NaN	NaN
